<?xml version="1.0" encoding="utf-8"?>
<!-- Generator: Adobe Illustrator 16.0.0, SVG Export Plug-In . SVG Version: 6.00 Build 0)  -->
<!DOCTYPE svg PUBLIC "-//W3C//DTD SVG 1.1//EN" "http://www.w3.org/Graphics/SVG/1.1/DTD/svg11.dtd" [
	<!ENTITY ns_extend "http://ns.adobe.com/Extensibility/1.0/">
	<!ENTITY ns_ai "http://ns.adobe.com/AdobeIllustrator/10.0/">
	<!ENTITY ns_graphs "http://ns.adobe.com/Graphs/1.0/">
	<!ENTITY ns_vars "http://ns.adobe.com/Variables/1.0/">
	<!ENTITY ns_imrep "http://ns.adobe.com/ImageReplacement/1.0/">
	<!ENTITY ns_sfw "http://ns.adobe.com/SaveForWeb/1.0/">
	<!ENTITY ns_custom "http://ns.adobe.com/GenericCustomNamespace/1.0/">
	<!ENTITY ns_adobe_xpath "http://ns.adobe.com/XPath/1.0/">
]>
<svg version="1.1" id="Слой_1" xmlns:x="&ns_extend;" xmlns:i="&ns_ai;" xmlns:graph="&ns_graphs;"
	 xmlns="http://www.w3.org/2000/svg" xmlns:xlink="http://www.w3.org/1999/xlink" x="0px" y="0px" width="549px" height="131px"
	 viewBox="0 0 549 131" enable-background="new 0 0 549 131" xml:space="preserve">
<metadata>
	<sfw  xmlns="&ns_sfw;">
		<slices></slices>
		<sliceSourceBounds  x="-175" y="27.657" width="548.209" height="138.342" bottomLeftOrigin="true"></sliceSourceBounds>
	</sfw>
</metadata>
<title>Group</title>
<desc>Created with Sketch.</desc>
<g id="Welcome">
	<g id="Token-only-_x7C_-index" transform="translate(-450.000000, -414.000000)">
		<g id="Group" transform="translate(450.000000, 414.000000)">
			<path id="цифровий-підпис" fill="#323232" d="M42.722,130.604h-1.188 M48.628,130.604h-1.189"/>
			<path id="захищений-носій" fill="#323232" d="M243.642,104.577c0.278,0,0.531-0.021,0.759-0.062
				c0.229-0.041,0.425-0.105,0.588-0.195c0.164-0.088,0.291-0.205,0.381-0.353c0.089-0.147,0.133-0.321,0.133-0.526
				c0-0.351-0.131-0.613-0.394-0.789s-0.64-0.264-1.132-0.264c-0.323,0-0.632,0.045-0.926,0.131s-0.612,0.207-0.954,0.361
				l-0.431-1.005c0.183-0.092,0.36-0.168,0.537-0.231c0.175-0.064,0.355-0.117,0.543-0.16c0.188-0.045,0.383-0.076,0.588-0.096
				c0.205-0.021,0.429-0.031,0.67-0.031c0.393,0,0.752,0.043,1.08,0.129c0.328,0.088,0.611,0.215,0.852,0.384
				s0.425,0.377,0.558,0.626c0.133,0.248,0.197,0.531,0.197,0.852c0,0.228-0.03,0.43-0.096,0.604
				c-0.063,0.176-0.153,0.331-0.27,0.465c-0.116,0.135-0.255,0.249-0.414,0.342c-0.159,0.094-0.337,0.172-0.533,0.236v0.074
				c0.201,0.063,0.395,0.146,0.581,0.246c0.188,0.102,0.353,0.227,0.496,0.377c0.143,0.149,0.259,0.328,0.345,0.533
				c0.087,0.205,0.13,0.448,0.13,0.73c0,0.306-0.061,0.591-0.181,0.857c-0.121,0.267-0.306,0.498-0.551,0.693
				c-0.246,0.195-0.559,0.35-0.938,0.461c-0.378,0.112-0.824,0.168-1.34,0.168c-0.496,0-0.944-0.039-1.343-0.119
				c-0.399-0.08-0.73-0.197-0.995-0.353v-1.136c0.142,0.074,0.299,0.146,0.472,0.217c0.174,0.07,0.359,0.133,0.558,0.188
				c0.199,0.055,0.407,0.101,0.63,0.133c0.221,0.035,0.446,0.053,0.68,0.053c0.251,0,0.485-0.021,0.704-0.063
				s0.408-0.109,0.566-0.205c0.16-0.096,0.286-0.223,0.381-0.379c0.093-0.158,0.14-0.353,0.14-0.584c0-0.43-0.151-0.746-0.454-0.955
				c-0.304-0.207-0.771-0.311-1.398-0.311h-0.882v-1.046h0.663V104.577z M253.174,109l-0.253-1.039h-0.055
				c-0.15,0.205-0.302,0.382-0.451,0.529c-0.15,0.148-0.314,0.271-0.492,0.365c-0.178,0.096-0.376,0.168-0.595,0.213
				c-0.22,0.045-0.473,0.067-0.76,0.067c-0.313,0-0.604-0.045-0.867-0.133c-0.265-0.09-0.493-0.228-0.688-0.41
				c-0.193-0.186-0.346-0.418-0.455-0.696c-0.108-0.281-0.164-0.612-0.164-0.996c0-0.746,0.265-1.32,0.79-1.723
				c0.526-0.402,1.327-0.619,2.402-0.656l1.258-0.047v-0.473c0-0.307-0.032-0.561-0.099-0.766c-0.067-0.205-0.162-0.37-0.287-0.495
				c-0.125-0.126-0.28-0.216-0.465-0.271c-0.186-0.055-0.396-0.081-0.634-0.081c-0.378,0-0.729,0.055-1.056,0.163
				c-0.327,0.109-0.64,0.241-0.94,0.396l-0.438-0.938c0.338-0.182,0.714-0.338,1.128-0.465c0.415-0.127,0.851-0.19,1.306-0.19
				c0.466,0,0.867,0.047,1.207,0.141c0.341,0.093,0.62,0.24,0.842,0.443c0.221,0.203,0.386,0.461,0.494,0.775
				c0.109,0.314,0.164,0.694,0.164,1.143V109H253.174z M250.891,108.132c0.278,0,0.536-0.044,0.772-0.13s0.441-0.218,0.614-0.393
				c0.175-0.176,0.311-0.396,0.407-0.664c0.099-0.266,0.146-0.58,0.146-0.939v-0.677l-0.979,0.048
				c-0.41,0.018-0.754,0.064-1.032,0.137c-0.276,0.072-0.5,0.174-0.666,0.305c-0.166,0.13-0.285,0.287-0.358,0.472
				c-0.072,0.187-0.109,0.394-0.109,0.626c0,0.419,0.111,0.729,0.332,0.923C250.24,108.034,250.531,108.132,250.891,108.132z
				 M258.167,105.15l-2.413-3.656h1.415l1.709,2.803l1.709-2.803h1.415l-2.427,3.656l2.55,3.85h-1.415l-1.832-2.98l-1.846,2.98
				h-1.415L258.167,105.15z M264.939,101.494v4.566l-0.082,1.723l3.527-6.289h1.593V109h-1.176v-4.423l0.075-1.853L265.363,109h-1.6
				v-7.506H264.939z M283.426,111.604h-1.244V109h-9.632v-7.506h1.244v6.453h3.027v-6.453h1.244v6.453h3.021v-6.453h1.251v6.453
				h1.087L283.426,111.604L283.426,111.604z M287.989,109.137c-0.502,0-0.96-0.084-1.373-0.253c-0.415-0.169-0.771-0.415-1.07-0.737
				c-0.298-0.323-0.529-0.726-0.693-1.203c-0.164-0.479-0.246-1.025-0.246-1.642c0-0.62,0.075-1.173,0.227-1.661
				c0.15-0.488,0.361-0.9,0.636-1.24c0.273-0.34,0.601-0.599,0.98-0.775c0.381-0.178,0.801-0.268,1.262-0.268
				c0.451,0,0.855,0.082,1.217,0.242c0.359,0.162,0.665,0.392,0.916,0.685c0.25,0.295,0.443,0.647,0.577,1.062
				c0.135,0.411,0.202,0.868,0.202,1.369v0.771h-4.73c0.022,0.88,0.208,1.527,0.558,1.941c0.349,0.414,0.866,0.622,1.556,0.622
				c0.231,0,0.447-0.011,0.646-0.034c0.199-0.022,0.391-0.056,0.574-0.1c0.186-0.043,0.363-0.098,0.537-0.164
				c0.173-0.064,0.349-0.141,0.526-0.223v1.107c-0.184,0.088-0.361,0.161-0.537,0.227c-0.175,0.063-0.355,0.115-0.54,0.156
				c-0.186,0.041-0.376,0.071-0.574,0.09C288.439,109.127,288.221,109.137,287.989,109.137z M287.681,102.391
				c-0.52,0-0.931,0.178-1.234,0.532c-0.303,0.354-0.479,0.872-0.528,1.552h3.362c0-0.311-0.03-0.594-0.093-0.852
				c-0.062-0.257-0.157-0.477-0.287-0.659c-0.13-0.182-0.295-0.323-0.494-0.424C288.204,102.439,287.963,102.391,287.681,102.391z
				 M293.952,101.494v3.109h3.726v-3.109h1.244V109h-1.244v-3.343h-3.726V109h-1.244v-7.506H293.952z M302.671,101.494v4.566
				l-0.082,1.723l3.526-6.289h1.594V109h-1.177v-4.423l0.075-1.853L303.095,109h-1.601v-7.506H302.671z M311.457,101.494v4.566
				l-0.081,1.723l3.526-6.289h1.593V109h-1.176v-4.423l0.075-1.853L311.882,109h-1.601v-7.506H311.457z M315.996,98.343
				c-0.026,0.355-0.097,0.667-0.209,0.937c-0.11,0.271-0.272,0.496-0.484,0.681c-0.212,0.187-0.479,0.324-0.8,0.418
				c-0.321,0.093-0.709,0.14-1.165,0.14c-0.471,0-0.863-0.043-1.184-0.134c-0.318-0.088-0.579-0.225-0.778-0.405
				c-0.2-0.182-0.349-0.41-0.441-0.681s-0.151-0.59-0.174-0.954h1.162c0.021,0.26,0.063,0.473,0.126,0.641
				c0.062,0.166,0.148,0.295,0.264,0.389c0.114,0.094,0.258,0.158,0.431,0.195s0.382,0.055,0.622,0.055
				c0.2,0,0.385-0.021,0.55-0.064c0.167-0.043,0.313-0.113,0.436-0.213c0.123-0.098,0.224-0.229,0.301-0.393s0.13-0.367,0.157-0.607
				h1.188V98.343z M263.763,120.494v3.109h3.726v-3.109h1.244V128h-1.244v-3.343h-3.726V128h-1.244v-7.506H263.763z
				 M277.424,124.232c0,0.625-0.076,1.18-0.229,1.666c-0.152,0.483-0.372,0.893-0.655,1.223c-0.285,0.331-0.631,0.582-1.036,0.756
				s-0.861,0.26-1.367,0.26c-0.47,0-0.902-0.086-1.299-0.26c-0.397-0.174-0.739-0.425-1.028-0.756
				c-0.29-0.33-0.516-0.738-0.677-1.223c-0.162-0.486-0.243-1.041-0.243-1.666c0-0.619,0.076-1.17,0.229-1.65
				c0.151-0.48,0.369-0.887,0.651-1.217s0.628-0.58,1.036-0.752c0.407-0.17,0.864-0.256,1.37-0.256c0.47,0,0.902,0.086,1.299,0.256
				c0.396,0.172,0.739,0.422,1.029,0.752c0.289,0.33,0.515,0.736,0.677,1.217S277.424,123.613,277.424,124.232z M272.174,124.232
				c0,0.953,0.156,1.67,0.469,2.149c0.313,0.481,0.818,0.722,1.521,0.722s1.207-0.239,1.515-0.722
				c0.308-0.479,0.461-1.196,0.461-2.149c0-0.951-0.156-1.664-0.468-2.135c-0.313-0.474-0.819-0.709-1.521-0.709
				c-0.701,0-1.206,0.235-1.514,0.709C272.328,122.568,272.174,123.281,272.174,124.232z M282.451,128.137
				c-0.46,0-0.892-0.072-1.292-0.215c-0.4-0.145-0.749-0.372-1.047-0.684c-0.296-0.313-0.527-0.711-0.696-1.197
				c-0.168-0.484-0.253-1.068-0.253-1.753c0-0.716,0.087-1.323,0.26-1.821c0.174-0.5,0.411-0.904,0.715-1.217
				c0.303-0.313,0.657-0.539,1.063-0.682c0.405-0.142,0.841-0.211,1.306-0.211c0.354,0,0.703,0.039,1.043,0.115
				c0.339,0.077,0.623,0.174,0.851,0.287l-0.368,1.053c-0.104-0.045-0.222-0.09-0.35-0.133c-0.127-0.044-0.26-0.082-0.396-0.115
				c-0.138-0.035-0.271-0.063-0.403-0.082c-0.132-0.021-0.257-0.031-0.376-0.031c-0.715,0-1.237,0.229-1.565,0.688
				c-0.327,0.457-0.491,1.17-0.491,2.137c0,0.961,0.165,1.664,0.495,2.107c0.33,0.445,0.833,0.667,1.508,0.667
				c0.368,0,0.703-0.042,1.002-0.126c0.298-0.085,0.569-0.184,0.815-0.298v1.106c-0.246,0.133-0.509,0.232-0.789,0.302
				C283.203,128.104,282.858,128.137,282.451,128.137z M287.499,128h-1.244v-7.506h1.244V128z M286.159,118.464
				c0-0.272,0.068-0.472,0.209-0.595c0.139-0.123,0.311-0.186,0.516-0.186c0.101,0,0.195,0.016,0.284,0.045s0.166,0.076,0.231,0.141
				s0.118,0.145,0.157,0.242c0.038,0.099,0.059,0.216,0.059,0.353c0,0.265-0.071,0.462-0.216,0.591
				c-0.144,0.131-0.314,0.195-0.517,0.195c-0.205,0-0.377-0.064-0.516-0.191S286.159,118.732,286.159,118.464z M291.248,120.494
				v4.566l-0.082,1.723l3.526-6.289h1.594V128h-1.177v-4.423l0.075-1.853L291.672,128h-1.601v-7.506H291.248z M295.787,117.343
				c-0.027,0.355-0.098,0.667-0.208,0.937c-0.111,0.271-0.273,0.496-0.485,0.681c-0.212,0.187-0.479,0.324-0.8,0.418
				c-0.321,0.093-0.71,0.14-1.166,0.14c-0.469,0-0.863-0.043-1.184-0.134c-0.317-0.088-0.577-0.225-0.778-0.405
				c-0.2-0.183-0.348-0.41-0.44-0.681c-0.094-0.271-0.15-0.59-0.175-0.954h1.162c0.022,0.26,0.064,0.473,0.127,0.641
				c0.062,0.166,0.148,0.295,0.263,0.389s0.258,0.158,0.432,0.195s0.381,0.055,0.622,0.055c0.2,0,0.385-0.021,0.551-0.064
				s0.311-0.113,0.434-0.213c0.123-0.098,0.225-0.229,0.301-0.393c0.078-0.164,0.13-0.367,0.157-0.607h1.188V117.343z"/>
			<path id="гарантована-безпека" fill="#323232" d="M469.799,102.547h-2.886V109h-1.243v-7.506h4.129V102.547z
				 M475.695,109l-0.253-1.039h-0.055c-0.15,0.205-0.301,0.382-0.451,0.529c-0.15,0.148-0.314,0.271-0.492,0.365
				c-0.178,0.096-0.376,0.168-0.595,0.213s-0.472,0.067-0.759,0.067c-0.314,0-0.604-0.045-0.868-0.133
				c-0.266-0.09-0.493-0.228-0.688-0.41c-0.193-0.186-0.346-0.418-0.455-0.696c-0.108-0.281-0.163-0.612-0.163-0.996
				c0-0.746,0.264-1.32,0.788-1.723c0.527-0.4,1.328-0.619,2.403-0.656l1.258-0.047v-0.473c0-0.307-0.032-0.561-0.099-0.766
				s-0.162-0.37-0.287-0.495c-0.126-0.126-0.281-0.216-0.465-0.271c-0.187-0.055-0.396-0.081-0.633-0.081
				c-0.378,0-0.73,0.055-1.058,0.163c-0.324,0.109-0.639,0.241-0.938,0.396l-0.438-0.938c0.337-0.182,0.713-0.338,1.128-0.465
				s0.851-0.19,1.307-0.19c0.465,0,0.867,0.047,1.207,0.141c0.339,0.093,0.619,0.24,0.84,0.443c0.222,0.203,0.387,0.461,0.496,0.775
				c0.108,0.314,0.164,0.694,0.164,1.143V109H475.695z M473.41,108.132c0.278,0,0.535-0.044,0.772-0.13s0.442-0.218,0.615-0.393
				c0.173-0.176,0.309-0.396,0.405-0.664c0.1-0.266,0.147-0.58,0.147-0.939v-0.677l-0.979,0.048
				c-0.409,0.018-0.754,0.064-1.031,0.137c-0.278,0.073-0.5,0.174-0.667,0.305c-0.166,0.13-0.285,0.287-0.358,0.472
				c-0.073,0.187-0.109,0.394-0.109,0.626c0,0.419,0.11,0.729,0.331,0.923C472.761,108.033,473.051,108.132,473.41,108.132z
				 M482.479,109.137c-0.269,0-0.513-0.029-0.731-0.089c-0.218-0.06-0.415-0.138-0.591-0.235c-0.176-0.099-0.331-0.213-0.465-0.346
				c-0.135-0.133-0.255-0.271-0.359-0.417h-0.081c0.014,0.155,0.026,0.304,0.04,0.444c0.01,0.119,0.02,0.24,0.027,0.365
				c0.009,0.125,0.014,0.225,0.014,0.298v3.206h-1.243v-10.869h1.012l0.178,1.012h0.056c0.104-0.16,0.224-0.309,0.354-0.447
				c0.132-0.14,0.286-0.26,0.462-0.363c0.175-0.102,0.372-0.184,0.591-0.245c0.22-0.062,0.466-0.093,0.738-0.093
				c0.429,0,0.818,0.082,1.169,0.246c0.352,0.164,0.65,0.41,0.899,0.734c0.248,0.326,0.439,0.73,0.577,1.214
				c0.137,0.484,0.204,1.044,0.204,1.683c0,0.643-0.067,1.205-0.204,1.691c-0.138,0.484-0.329,0.893-0.577,1.221
				c-0.249,0.328-0.55,0.574-0.899,0.74C483.297,109.055,482.906,109.137,482.479,109.137z M482.24,102.391
				c-0.347,0-0.639,0.051-0.878,0.156s-0.434,0.264-0.581,0.479c-0.147,0.216-0.258,0.48-0.328,0.801
				c-0.07,0.318-0.11,0.693-0.12,1.128v0.28c0,0.459,0.031,0.869,0.094,1.228c0.062,0.356,0.166,0.658,0.313,0.901
				c0.147,0.244,0.346,0.429,0.591,0.554c0.246,0.126,0.555,0.188,0.924,0.188c0.614,0,1.066-0.25,1.356-0.746
				c0.289-0.496,0.435-1.209,0.435-2.139c0-0.949-0.146-1.658-0.435-2.127C483.321,102.625,482.864,102.391,482.24,102.391z
				 M491.717,109l-0.253-1.039h-0.056c-0.149,0.205-0.301,0.382-0.45,0.529c-0.15,0.148-0.314,0.271-0.492,0.365
				c-0.179,0.096-0.376,0.168-0.596,0.213c-0.219,0.045-0.472,0.067-0.759,0.067c-0.313,0-0.604-0.045-0.868-0.133
				c-0.264-0.09-0.492-0.228-0.687-0.41c-0.194-0.186-0.346-0.418-0.455-0.696c-0.109-0.281-0.164-0.612-0.164-0.996
				c0-0.746,0.264-1.32,0.79-1.723s1.327-0.619,2.402-0.656l1.258-0.047v-0.473c0-0.307-0.033-0.561-0.1-0.766
				c-0.065-0.205-0.161-0.37-0.286-0.495c-0.126-0.126-0.28-0.216-0.466-0.271c-0.185-0.055-0.396-0.081-0.633-0.081
				c-0.378,0-0.729,0.055-1.056,0.163c-0.326,0.109-0.64,0.241-0.94,0.396l-0.438-0.938c0.338-0.182,0.714-0.338,1.128-0.465
				c0.415-0.127,0.851-0.19,1.306-0.19c0.465,0,0.867,0.047,1.207,0.141c0.339,0.093,0.619,0.24,0.841,0.443
				s0.387,0.461,0.495,0.775c0.109,0.314,0.164,0.694,0.164,1.143V109H491.717z M489.434,108.132c0.278,0,0.536-0.044,0.771-0.13
				c0.237-0.086,0.442-0.218,0.615-0.393c0.174-0.176,0.31-0.396,0.407-0.664c0.098-0.266,0.146-0.58,0.146-0.939v-0.677
				l-0.978,0.048c-0.41,0.018-0.754,0.064-1.032,0.137c-0.276,0.072-0.5,0.174-0.666,0.305c-0.167,0.13-0.286,0.287-0.358,0.472
				c-0.072,0.187-0.109,0.394-0.109,0.626c0,0.419,0.11,0.729,0.332,0.923C488.782,108.033,489.073,108.132,489.434,108.132z
				 M496.355,101.494v3.109h3.726v-3.109h1.244V109h-1.244v-3.343h-3.726V109h-1.244v-7.506H496.355z M508.601,102.547h-2.181V109
				h-1.251v-6.453h-2.182v-1.053h5.612L508.601,102.547L508.601,102.547z M516.384,105.232c0,0.625-0.077,1.18-0.229,1.666
				c-0.151,0.483-0.371,0.893-0.656,1.223c-0.284,0.331-0.63,0.582-1.034,0.756c-0.406,0.174-0.861,0.26-1.367,0.26
				c-0.47,0-0.902-0.086-1.299-0.26c-0.397-0.174-0.74-0.425-1.029-0.756c-0.289-0.33-0.515-0.738-0.677-1.223
				c-0.162-0.486-0.242-1.041-0.242-1.666c0-0.619,0.076-1.17,0.229-1.65s0.37-0.887,0.653-1.217c0.282-0.33,0.627-0.58,1.035-0.752
				c0.408-0.17,0.865-0.256,1.371-0.256c0.469,0,0.901,0.086,1.299,0.256c0.396,0.172,0.739,0.422,1.028,0.752
				s0.515,0.736,0.677,1.217C516.303,104.063,516.384,104.613,516.384,105.232z M511.134,105.232c0,0.953,0.154,1.67,0.468,2.149
				c0.313,0.481,0.819,0.722,1.521,0.722s1.206-0.239,1.515-0.722c0.308-0.479,0.462-1.196,0.462-2.149
				c0-0.951-0.156-1.664-0.469-2.135c-0.313-0.474-0.819-0.709-1.521-0.709s-1.207,0.235-1.515,0.709
				C511.286,103.568,511.134,104.281,511.134,105.232z M524.281,103.389c0,0.473-0.141,0.844-0.421,1.109
				c-0.28,0.268-0.664,0.441-1.151,0.523v0.047c0.256,0.033,0.493,0.09,0.715,0.172c0.221,0.082,0.412,0.191,0.573,0.332
				c0.162,0.139,0.289,0.312,0.384,0.52c0.094,0.207,0.141,0.454,0.141,0.741c0,0.306-0.054,0.591-0.161,0.854
				c-0.106,0.264-0.275,0.494-0.506,0.689c-0.229,0.196-0.526,0.35-0.889,0.458c-0.363,0.108-0.802,0.165-1.315,0.165h-3.109v-7.506
				h3.097c0.378,0,0.729,0.031,1.053,0.096c0.323,0.064,0.604,0.168,0.837,0.314c0.235,0.146,0.419,0.341,0.554,0.584
				C524.215,102.732,524.281,103.032,524.281,103.389z M523.298,106.744c0-0.42-0.148-0.711-0.444-0.875
				c-0.297-0.164-0.736-0.246-1.319-0.246h-1.75v2.352h1.777c0.255,0,0.488-0.021,0.7-0.062s0.395-0.108,0.547-0.205
				s0.271-0.222,0.359-0.38C523.254,107.172,523.298,106.977,523.298,106.744z M523.093,103.511c0-0.351-0.124-0.599-0.373-0.745
				c-0.248-0.146-0.618-0.219-1.11-0.219h-1.825v2.03h1.613c0.282,0,0.528-0.017,0.738-0.052c0.209-0.033,0.386-0.092,0.528-0.174
				c0.144-0.082,0.251-0.191,0.321-0.328C523.056,103.886,523.093,103.716,523.093,103.511z M530.903,109l-0.253-1.039h-0.055
				c-0.15,0.205-0.301,0.382-0.451,0.529c-0.15,0.148-0.314,0.271-0.492,0.365c-0.178,0.096-0.376,0.168-0.595,0.213
				s-0.472,0.067-0.759,0.067c-0.314,0-0.604-0.045-0.868-0.133c-0.265-0.09-0.493-0.228-0.688-0.41
				c-0.192-0.186-0.345-0.418-0.453-0.696c-0.109-0.281-0.164-0.612-0.164-0.996c0-0.746,0.263-1.32,0.789-1.723
				c0.525-0.402,1.326-0.619,2.402-0.656l1.258-0.047v-0.473c0-0.307-0.032-0.561-0.1-0.766c-0.065-0.205-0.161-0.37-0.287-0.495
				c-0.125-0.126-0.28-0.216-0.465-0.271c-0.185-0.055-0.396-0.081-0.632-0.081c-0.379,0-0.73,0.055-1.058,0.163
				c-0.324,0.109-0.639,0.241-0.938,0.396l-0.438-0.938c0.337-0.182,0.714-0.338,1.128-0.465s0.851-0.19,1.307-0.19
				c0.465,0,0.867,0.047,1.206,0.141c0.34,0.093,0.62,0.24,0.841,0.443c0.222,0.203,0.387,0.461,0.496,0.775
				c0.108,0.314,0.164,0.694,0.164,1.143V109H530.903z M528.618,108.132c0.277,0,0.535-0.044,0.772-0.13
				c0.236-0.086,0.44-0.218,0.615-0.393c0.173-0.176,0.309-0.396,0.405-0.664c0.1-0.266,0.147-0.58,0.147-0.939v-0.677l-0.979,0.048
				c-0.409,0.018-0.755,0.064-1.031,0.137c-0.278,0.072-0.5,0.174-0.667,0.305c-0.166,0.13-0.286,0.287-0.358,0.472
				c-0.073,0.187-0.109,0.394-0.109,0.626c0,0.419,0.11,0.729,0.331,0.923C527.969,108.033,528.259,108.132,528.618,108.132z
				 M535.539,101.494v3.109h3.727v-3.109h1.244V109h-1.244v-3.343h-3.727V109h-1.243v-7.506H535.539z M547.315,109l-0.253-1.039
				h-0.055c-0.15,0.205-0.302,0.382-0.451,0.529c-0.15,0.148-0.314,0.271-0.492,0.365c-0.178,0.096-0.376,0.168-0.595,0.213
				s-0.473,0.067-0.759,0.067c-0.314,0-0.604-0.045-0.868-0.133c-0.266-0.09-0.493-0.228-0.688-0.41
				c-0.192-0.186-0.345-0.418-0.454-0.696c-0.108-0.281-0.164-0.612-0.164-0.996c0-0.746,0.264-1.32,0.79-1.723
				c0.525-0.4,1.327-0.619,2.402-0.656l1.258-0.047v-0.473c0-0.307-0.033-0.561-0.1-0.766c-0.065-0.205-0.161-0.37-0.287-0.495
				c-0.125-0.126-0.279-0.216-0.465-0.271c-0.185-0.055-0.396-0.081-0.632-0.081c-0.378,0-0.73,0.055-1.057,0.163
				c-0.326,0.109-0.64,0.241-0.939,0.396l-0.438-0.938c0.337-0.182,0.713-0.338,1.128-0.465s0.851-0.19,1.307-0.19
				c0.465,0,0.866,0.047,1.206,0.141c0.34,0.093,0.619,0.24,0.842,0.443c0.221,0.203,0.386,0.461,0.495,0.775
				c0.108,0.314,0.164,0.694,0.164,1.143V109H547.315z M545.031,108.132c0.278,0,0.535-0.044,0.772-0.13
				c0.236-0.086,0.441-0.218,0.615-0.393c0.173-0.176,0.309-0.396,0.406-0.664c0.099-0.266,0.146-0.58,0.146-0.939v-0.677
				l-0.979,0.048c-0.41,0.018-0.754,0.064-1.031,0.137c-0.278,0.073-0.5,0.174-0.666,0.305c-0.168,0.13-0.286,0.287-0.359,0.472
				c-0.073,0.187-0.109,0.394-0.109,0.626c0,0.419,0.11,0.729,0.332,0.923C544.381,108.033,544.671,108.132,545.031,108.132z
				 M481.105,123.495c0-0.825,0.056-1.558,0.168-2.198c0.111-0.64,0.285-1.191,0.522-1.654c0.236-0.461,0.54-0.836,0.908-1.123
				c0.369-0.287,0.813-0.487,1.326-0.603c0.569-0.123,1.13-0.24,1.683-0.353c0.552-0.111,1.06-0.213,1.523-0.305l0.227,1.094
				c-0.229,0.037-0.481,0.08-0.763,0.131c-0.28,0.051-0.563,0.103-0.848,0.156c-0.285,0.055-0.561,0.109-0.827,0.164
				c-0.266,0.055-0.501,0.104-0.701,0.15c-0.281,0.063-0.538,0.171-0.766,0.32c-0.229,0.15-0.424,0.354-0.588,0.611
				c-0.164,0.258-0.293,0.574-0.386,0.951c-0.095,0.375-0.149,0.82-0.168,1.336h0.089c0.082-0.133,0.192-0.267,0.335-0.402
				c0.142-0.137,0.308-0.262,0.499-0.373c0.19-0.111,0.408-0.205,0.652-0.276c0.243-0.072,0.512-0.108,0.804-0.108
				c0.45,0,0.848,0.082,1.188,0.25c0.342,0.166,0.628,0.397,0.858,0.696c0.229,0.298,0.4,0.651,0.516,1.063
				c0.115,0.41,0.171,0.86,0.171,1.354c0,0.625-0.078,1.172-0.234,1.641c-0.157,0.469-0.378,0.861-0.66,1.176
				c-0.282,0.315-0.622,0.552-1.02,0.707c-0.396,0.158-0.832,0.236-1.306,0.236c-0.487,0-0.929-0.102-1.322-0.305
				c-0.395-0.202-0.73-0.501-1.012-0.895c-0.28-0.396-0.496-0.881-0.646-1.457C481.18,124.904,481.105,124.242,481.105,123.495z
				 M484.393,127.104c0.273,0,0.521-0.043,0.745-0.133c0.224-0.089,0.415-0.232,0.574-0.435c0.158-0.202,0.281-0.464,0.368-0.789
				c0.088-0.326,0.131-0.729,0.131-1.207c0-0.383-0.029-0.728-0.09-1.032c-0.06-0.305-0.154-0.566-0.286-0.781
				c-0.133-0.218-0.302-0.384-0.507-0.5c-0.205-0.115-0.456-0.175-0.752-0.175c-0.277,0-0.538,0.056-0.778,0.164
				c-0.241,0.109-0.457,0.242-0.646,0.396c-0.188,0.154-0.349,0.315-0.479,0.482c-0.13,0.166-0.226,0.309-0.284,0.428
				c0,0.455,0.028,0.896,0.086,1.326c0.057,0.428,0.159,0.81,0.308,1.146c0.147,0.334,0.353,0.604,0.611,0.807
				C483.655,127.003,483.988,127.104,484.393,127.104z M492.633,128.137c-0.501,0-0.959-0.084-1.374-0.253
				c-0.414-0.169-0.771-0.415-1.069-0.737c-0.299-0.323-0.53-0.726-0.694-1.203c-0.164-0.479-0.245-1.025-0.245-1.642
				c0-0.62,0.074-1.173,0.226-1.661s0.362-0.9,0.636-1.24s0.602-0.599,0.981-0.775c0.38-0.178,0.801-0.268,1.261-0.268
				c0.451,0,0.857,0.082,1.217,0.242c0.36,0.162,0.666,0.392,0.916,0.685c0.251,0.295,0.443,0.647,0.578,1.061
				c0.134,0.412,0.201,0.869,0.201,1.37v0.771h-4.73c0.023,0.88,0.209,1.527,0.559,1.941c0.349,0.414,0.867,0.622,1.555,0.622
				c0.232,0,0.448-0.011,0.646-0.034c0.197-0.022,0.39-0.056,0.573-0.1c0.186-0.043,0.363-0.098,0.536-0.164
				c0.174-0.064,0.35-0.141,0.526-0.223v1.107c-0.183,0.088-0.361,0.161-0.536,0.227c-0.176,0.063-0.355,0.115-0.54,0.156
				s-0.376,0.071-0.574,0.09C493.082,128.127,492.865,128.137,492.633,128.137z M492.324,121.391c-0.52,0-0.931,0.178-1.232,0.532
				c-0.305,0.354-0.479,0.872-0.53,1.552h3.363c0-0.311-0.03-0.594-0.093-0.852c-0.062-0.257-0.156-0.477-0.286-0.659
				c-0.13-0.182-0.295-0.323-0.496-0.424C492.85,121.439,492.609,121.391,492.324,121.391z M498.686,123.577
				c0.278,0,0.531-0.021,0.759-0.062c0.229-0.041,0.424-0.105,0.588-0.195c0.164-0.088,0.291-0.205,0.38-0.353
				c0.09-0.147,0.134-0.321,0.134-0.526c0-0.351-0.132-0.613-0.394-0.789s-0.64-0.264-1.132-0.264c-0.323,0-0.632,0.045-0.926,0.131
				s-0.612,0.207-0.954,0.361l-0.431-1.005c0.183-0.092,0.36-0.168,0.536-0.231c0.176-0.064,0.356-0.117,0.543-0.16
				c0.188-0.045,0.384-0.076,0.589-0.096c0.204-0.021,0.429-0.031,0.67-0.031c0.393,0,0.752,0.043,1.08,0.129
				c0.327,0.088,0.611,0.215,0.852,0.384s0.425,0.377,0.557,0.626c0.134,0.248,0.198,0.531,0.198,0.852
				c0,0.228-0.031,0.43-0.096,0.604c-0.063,0.176-0.153,0.331-0.271,0.465c-0.115,0.135-0.254,0.249-0.414,0.342
				c-0.158,0.094-0.337,0.172-0.532,0.236v0.074c0.2,0.063,0.395,0.146,0.581,0.246c0.188,0.102,0.353,0.227,0.495,0.377
				c0.144,0.149,0.26,0.328,0.346,0.533c0.087,0.205,0.13,0.448,0.13,0.73c0,0.306-0.061,0.591-0.181,0.857
				c-0.121,0.267-0.306,0.498-0.552,0.693s-0.558,0.35-0.937,0.461c-0.378,0.112-0.824,0.168-1.34,0.168
				c-0.496,0-0.944-0.039-1.344-0.119c-0.397-0.08-0.729-0.197-0.994-0.353v-1.136c0.142,0.074,0.299,0.146,0.472,0.217
				c0.174,0.07,0.359,0.133,0.558,0.188c0.199,0.055,0.407,0.101,0.629,0.133c0.222,0.035,0.447,0.053,0.681,0.053
				c0.251,0,0.484-0.021,0.704-0.063c0.219-0.041,0.407-0.109,0.566-0.205c0.16-0.096,0.286-0.223,0.38-0.379
				c0.095-0.158,0.141-0.353,0.141-0.584c0-0.43-0.151-0.746-0.454-0.955c-0.303-0.207-0.771-0.311-1.398-0.311h-0.882v-1.046h0.663
				V123.577z M505.231,128h-1.244v-7.506h5.935V128h-1.244v-6.453h-3.445L505.231,128L505.231,128z M515.468,128.137
				c-0.502,0-0.96-0.084-1.374-0.253c-0.415-0.169-0.771-0.415-1.07-0.737c-0.299-0.323-0.529-0.726-0.693-1.203
				c-0.164-0.479-0.245-1.025-0.245-1.642c0-0.62,0.074-1.173,0.226-1.661s0.362-0.9,0.636-1.24s0.601-0.599,0.98-0.775
				s0.801-0.268,1.262-0.268c0.451,0,0.856,0.082,1.217,0.242c0.359,0.162,0.665,0.392,0.916,0.685
				c0.25,0.295,0.442,0.647,0.577,1.061c0.135,0.412,0.202,0.869,0.202,1.37v0.771h-4.729c0.021,0.88,0.207,1.527,0.557,1.941
				c0.349,0.414,0.867,0.622,1.556,0.622c0.232,0,0.447-0.011,0.646-0.034c0.198-0.022,0.39-0.056,0.573-0.1
				c0.186-0.043,0.363-0.098,0.537-0.164c0.174-0.064,0.35-0.141,0.526-0.223v1.107c-0.183,0.088-0.361,0.161-0.537,0.227
				c-0.176,0.064-0.354,0.115-0.54,0.156c-0.185,0.041-0.376,0.071-0.574,0.09C515.918,128.127,515.699,128.137,515.468,128.137z
				 M515.159,121.391c-0.52,0-0.932,0.178-1.233,0.532c-0.303,0.354-0.479,0.872-0.529,1.552h3.363c0-0.311-0.031-0.594-0.094-0.852
				c-0.062-0.257-0.156-0.477-0.286-0.659c-0.131-0.182-0.296-0.323-0.495-0.424C515.684,121.439,515.443,121.391,515.159,121.391z
				 M524.206,120.494h1.341l-2.837,3.604l3.104,3.902h-1.408l-2.986-3.809V128h-1.23v-7.506h1.23v3.645L524.206,120.494z
				 M531.49,128l-0.253-1.039h-0.055c-0.15,0.205-0.301,0.382-0.451,0.529c-0.15,0.148-0.314,0.271-0.492,0.365
				c-0.178,0.096-0.376,0.168-0.595,0.213s-0.472,0.067-0.759,0.067c-0.314,0-0.604-0.045-0.868-0.133
				c-0.265-0.09-0.493-0.228-0.688-0.41c-0.192-0.186-0.345-0.418-0.453-0.696c-0.109-0.281-0.164-0.612-0.164-0.996
				c0-0.746,0.263-1.32,0.789-1.723c0.525-0.402,1.326-0.619,2.402-0.656l1.258-0.047v-0.473c0-0.307-0.032-0.561-0.1-0.766
				c-0.064-0.205-0.161-0.37-0.287-0.495c-0.125-0.126-0.279-0.216-0.465-0.271c-0.185-0.055-0.396-0.081-0.632-0.081
				c-0.379,0-0.73,0.055-1.058,0.163c-0.324,0.109-0.639,0.241-0.938,0.396l-0.438-0.938c0.338-0.182,0.714-0.338,1.129-0.465
				c0.413-0.127,0.85-0.19,1.306-0.19c0.465,0,0.867,0.047,1.206,0.141c0.34,0.093,0.62,0.24,0.841,0.443
				c0.222,0.203,0.387,0.461,0.496,0.775c0.108,0.314,0.164,0.694,0.164,1.143V128H531.49z M529.206,127.132
				c0.277,0,0.535-0.044,0.772-0.13c0.236-0.086,0.441-0.218,0.615-0.393c0.173-0.176,0.309-0.396,0.405-0.664
				c0.1-0.266,0.147-0.58,0.147-0.939v-0.677l-0.979,0.048c-0.409,0.018-0.755,0.064-1.031,0.137
				c-0.278,0.072-0.5,0.174-0.667,0.305c-0.166,0.13-0.286,0.287-0.358,0.472c-0.073,0.187-0.109,0.394-0.109,0.626
				c0,0.419,0.11,0.729,0.331,0.923C528.557,127.033,528.847,127.132,529.206,127.132z"/>
			<g id="formula">
				<g id="Clip-2">
				</g>
				<defs>
					<filter id="Adobe_OpacityMaskFilter" filterUnits="userSpaceOnUse" x="0" y="0" width="540" height="80">
						<feColorMatrix  type="matrix" values="1 0 0 0 0  0 1 0 0 0  0 0 1 0 0  0 0 0 1 0"/>
					</filter>
				</defs>
				<mask maskUnits="userSpaceOnUse" x="0" y="0" width="540" height="80" id="mask-2">
					<g filter="url(#Adobe_OpacityMaskFilter)">
						<polygon id="path-1" fill="#FFFFFF" points="0,80 540,80 540,0 0,0 						"/>
					</g>
				</mask>
				<path id="Fill-1" mask="url(#mask-2)" fill="#2D5883" d="M524.331,29.92c-0.485-0.481-1.275-0.481-1.764,0l-18.396,18.251
					l-8.758-8.688c-0.486-0.482-1.276-0.482-1.765,0c-0.486,0.483-0.486,1.268,0,1.751l9.639,9.563
					c0.236,0.233,0.551,0.362,0.884,0.362s0.646-0.129,0.883-0.362l19.277-19.126C524.819,31.188,524.819,30.403,524.331,29.92
					L524.331,29.92z M475.891,18.787c0.089,19.82,4.226,32.29,10.164,40.962c5.876,8.581,13.527,13.543,20.959,18.265
					c7.433-4.722,15.084-9.685,20.96-18.265c5.938-8.673,10.075-21.142,10.165-40.962c-10.838-3.969-21.269-9.364-31.125-16.788
					C497.156,9.423,486.728,14.818,475.891,18.787L475.891,18.787z M507.558,0.181c10.043,7.656,20.729,13.151,31.841,17.158
					c0.36,0.131,0.602,0.471,0.602,0.853c0,20.45-4.268,33.467-10.509,42.581c-6.24,9.114-14.411,14.276-21.989,19.088
					c-0.299,0.187-0.677,0.187-0.975,0c-7.579-4.813-15.749-9.976-21.99-19.088c-6.239-9.114-10.509-22.13-10.509-42.581
					c0.001-0.382,0.241-0.722,0.603-0.853c11.109-4.007,21.798-9.501,31.841-17.158c0.117-0.087,0.255-0.146,0.399-0.17
					C507.115-0.026,507.362,0.035,507.558,0.181L507.558,0.181z M303.288,31.079l8.033-7.97l-12.875-12.773l-8.032,7.97
					L303.288,31.079z M293.998,41.76l-5.043-5.003l-0.661,0.656l3.902,3.873l-6.449-1.346l-0.668,0.663l5.044,5.003l0.667-0.663
					l-3.887-3.855l6.427,1.335L293.998,41.76z M289.293,46.427l-0.543-0.539l-2.539,2.519l-1.787-1.773l2.186-2.167l-0.544-0.54
					l-2.185,2.167l-1.623-1.609L284.763,42l-0.547-0.543l-3.169,3.145l5.043,5.003L289.293,46.427z M285.508,50.182l-4.956-0.669
					l-0.243-4.178l-0.803,0.796l0.189,3.549l0.063,1.147l-2.493-2.474l-0.665,0.66l5.043,5.003l0.665-0.659l-1.704-1.691
					l-0.023-1.247l4.132,0.553L285.508,50.182z M279.515,54.979c-0.032-0.383-0.153-0.77-0.355-1.161
					c-0.202-0.393-0.493-0.776-0.871-1.152l-0.319-0.317c-0.375-0.372-0.764-0.662-1.161-0.864
					c-0.396-0.205-0.789-0.322-1.175-0.356c-0.388-0.034-0.763,0.019-1.124,0.155c-0.363,0.139-0.698,0.36-1.006,0.665
					c-0.297,0.295-0.515,0.621-0.652,0.98c-0.138,0.36-0.189,0.73-0.156,1.115c0.032,0.385,0.148,0.776,0.352,1.175
					c0.202,0.396,0.491,0.783,0.866,1.155l0.319,0.317c0.378,0.375,0.768,0.661,1.165,0.86c0.398,0.198,0.793,0.313,1.183,0.342
					c0.392,0.029,0.767-0.023,1.127-0.161c0.359-0.139,0.688-0.354,0.986-0.649c0.309-0.305,0.53-0.637,0.669-0.994
					C279.498,55.732,279.551,55.361,279.515,54.979L279.515,54.979z M274.492,61.111l-4.496-4.461l1.622-1.609l-0.547-0.542
					l-3.9,3.871l0.546,0.542l1.618-1.605l4.497,4.461L274.492,61.111z M266.672,51.979l3.203-3.179l-0.543-0.539l-2.538,2.518
					l-1.788-1.773l2.185-2.167l-0.543-0.539l-2.185,2.167l-1.623-1.609l2.505-2.485l-0.546-0.542l-3.17,3.145L266.672,51.979z
					 M264.971,52.23c-0.083-0.248-0.227-0.474-0.433-0.679c-0.195-0.194-0.404-0.336-0.626-0.423
					c-0.221-0.087-0.46-0.129-0.721-0.118c-0.259,0.01-0.543,0.07-0.849,0.179c-0.307,0.108-0.642,0.265-1.01,0.47
					c-0.268,0.147-0.505,0.265-0.715,0.352c-0.213,0.086-0.402,0.139-0.569,0.159c-0.17,0.022-0.32,0.011-0.454-0.032
					c-0.133-0.042-0.251-0.117-0.357-0.223c-0.116-0.116-0.204-0.244-0.264-0.383c-0.058-0.141-0.08-0.288-0.067-0.445
					c0.014-0.156,0.064-0.321,0.153-0.493c0.091-0.172,0.226-0.345,0.402-0.521c0.189-0.189,0.377-0.329,0.563-0.417
					c0.188-0.089,0.37-0.137,0.553-0.141c0.181-0.006,0.353,0.029,0.518,0.104c0.165,0.075,0.316,0.182,0.459,0.323l0.669-0.664
					c-0.196-0.194-0.428-0.345-0.688-0.451c-0.265-0.104-0.541-0.151-0.834-0.142c-0.291,0.01-0.593,0.083-0.897,0.218
					c-0.309,0.136-0.604,0.344-0.888,0.626c-0.258,0.256-0.459,0.523-0.601,0.801c-0.141,0.278-0.226,0.551-0.25,0.823
					c-0.026,0.271,0.003,0.531,0.087,0.777c0.086,0.248,0.229,0.468,0.425,0.664c0.195,0.196,0.407,0.329,0.636,0.406
					c0.229,0.076,0.475,0.102,0.734,0.079c0.262-0.023,0.538-0.089,0.831-0.2c0.294-0.109,0.601-0.253,0.924-0.43
					c0.306-0.167,0.569-0.295,0.79-0.383c0.22-0.088,0.413-0.139,0.579-0.155c0.167-0.017,0.313,0.001,0.438,0.055
					c0.126,0.055,0.247,0.14,0.366,0.258c0.246,0.243,0.348,0.53,0.304,0.856c-0.043,0.329-0.241,0.666-0.592,1.014
					c-0.164,0.163-0.339,0.301-0.526,0.411c-0.187,0.11-0.379,0.182-0.573,0.214c-0.194,0.034-0.389,0.023-0.579-0.03
					c-0.192-0.056-0.377-0.169-0.549-0.34l-0.667,0.662c0.167,0.167,0.349,0.295,0.539,0.384c0.192,0.091,0.391,0.146,0.591,0.169
					c0.204,0.022,0.41,0.016,0.617-0.019c0.205-0.035,0.41-0.095,0.609-0.179s0.391-0.187,0.574-0.313
					c0.184-0.125,0.353-0.263,0.509-0.417c0.265-0.263,0.472-0.534,0.625-0.81c0.153-0.279,0.247-0.551,0.283-0.82
					C265.078,52.735,265.054,52.479,264.971,52.23L264.971,52.23z M262.573,69.508L251.679,58.7c-0.44-0.437-1.101-0.437-1.541,0
					c-0.438,0.437-0.438,1.092,0,1.528l10.896,10.809c0.438,0.438,1.1,0.438,1.54,0C263.013,70.6,263.013,69.945,262.573,69.508
					L262.573,69.508z M266.61,43.173c0.027,0.376,0.139,0.754,0.331,1.134c0.192,0.379,0.466,0.744,0.82,1.094l0.505,0.501
					c0.354,0.352,0.72,0.622,1.102,0.813c0.378,0.19,0.757,0.303,1.134,0.335c0.375,0.031,0.741-0.018,1.095-0.149
					c0.354-0.13,0.679-0.343,0.977-0.638c0.305-0.3,0.524-0.604,0.666-0.913c0.144-0.309,0.219-0.613,0.227-0.917
					c0.008-0.303-0.045-0.6-0.161-0.892c-0.116-0.291-0.278-0.569-0.489-0.832l-0.667,0.663c0.149,0.204,0.27,0.402,0.354,0.593
					c0.087,0.192,0.13,0.381,0.13,0.573c0,0.19-0.046,0.382-0.144,0.577c-0.094,0.194-0.247,0.396-0.461,0.607
					c-0.224,0.222-0.464,0.368-0.722,0.439c-0.257,0.069-0.521,0.076-0.79,0.021c-0.269-0.056-0.536-0.167-0.807-0.33
					c-0.271-0.164-0.527-0.368-0.774-0.613l-0.512-0.508c-0.268-0.264-0.48-0.535-0.644-0.811s-0.267-0.548-0.307-0.816
					c-0.042-0.269-0.021-0.53,0.063-0.783c0.082-0.255,0.235-0.492,0.46-0.714c0.193-0.192,0.387-0.332,0.579-0.417
					c0.189-0.084,0.384-0.123,0.577-0.118c0.19,0.006,0.386,0.052,0.578,0.139s0.392,0.205,0.593,0.355l0.669-0.663
					c-0.274-0.223-0.561-0.393-0.855-0.508c-0.297-0.115-0.599-0.171-0.9-0.167c-0.303,0.005-0.604,0.074-0.907,0.21
					c-0.303,0.134-0.597,0.343-0.879,0.625c-0.313,0.309-0.537,0.644-0.676,1.002C266.634,42.428,266.579,42.796,266.61,43.173
					L266.61,43.173z M270.178,38.495l3.415,3.388c0.284,0.281,0.578,0.482,0.885,0.598c0.307,0.12,0.61,0.167,0.913,0.146
					c0.305-0.023,0.604-0.107,0.896-0.259c0.292-0.149,0.566-0.352,0.822-0.605c0.245-0.243,0.443-0.509,0.595-0.799
					s0.238-0.588,0.268-0.895c0.025-0.305-0.017-0.612-0.13-0.922c-0.113-0.308-0.313-0.604-0.596-0.886l-3.415-3.388l-0.669,0.664
					l3.415,3.388c0.195,0.195,0.338,0.39,0.427,0.59c0.09,0.198,0.131,0.396,0.126,0.591c-0.007,0.196-0.059,0.387-0.154,0.576
					c-0.097,0.188-0.234,0.368-0.409,0.541c-0.174,0.172-0.353,0.306-0.542,0.401c-0.188,0.096-0.382,0.146-0.578,0.152
					c-0.196,0.006-0.396-0.035-0.599-0.122c-0.2-0.088-0.397-0.228-0.595-0.423l-3.416-3.388L270.178,38.495z M274.874,33.836
					l5.042,5.003l0.669-0.664l-2.039-2.023l1.184-1.174l3.135,0.937l0.714-0.707l-0.041-0.041l-3.325-0.95
					c0.187-0.415,0.249-0.821,0.187-1.221c-0.063-0.4-0.253-0.755-0.566-1.066c-0.494-0.491-1.023-0.713-1.588-0.666
					c-0.565,0.046-1.132,0.353-1.698,0.916L274.874,33.836z M279.245,29.498l5.044,5.003l3.203-3.178l-0.545-0.54l-2.537,2.519
					l-1.787-1.773l2.185-2.167l-0.543-0.54l-2.186,2.168l-1.622-1.61l2.505-2.484l-0.547-0.542L279.245,29.498z M304.39,32.17
					l1.761,1.748l-38.186,37.883c-3.191,3.166-6.932,4.477-8.363,3.057l-13.314-13.209c-1.432-1.419,0-5.24,3.082-8.297
					l38.185-37.883l1.761,1.747l9.134-9.061l15.076,14.957L304.39,32.17z M278.335,54.207c-0.172-0.29-0.408-0.583-0.71-0.883
					L277.299,53c-0.301-0.298-0.596-0.531-0.888-0.699c-0.292-0.167-0.574-0.271-0.852-0.31c-0.273-0.039-0.538-0.016-0.788,0.072
					c-0.251,0.09-0.482,0.238-0.699,0.453c-0.204,0.203-0.351,0.429-0.438,0.677c-0.088,0.246-0.11,0.507-0.074,0.783
					c0.038,0.274,0.142,0.557,0.309,0.849c0.165,0.295,0.397,0.589,0.698,0.887l0.326,0.323c0.302,0.299,0.602,0.532,0.898,0.697
					c0.296,0.164,0.583,0.264,0.86,0.302c0.279,0.038,0.543,0.012,0.791-0.074c0.251-0.087,0.479-0.234,0.684-0.437
					c0.217-0.216,0.37-0.446,0.457-0.696c0.088-0.246,0.111-0.506,0.069-0.778C278.613,54.774,278.506,54.496,278.335,54.207
					L278.335,54.207z M279.421,34.056c0.086-0.183,0.132-0.362,0.138-0.536c0.005-0.173-0.024-0.337-0.095-0.496
					c-0.07-0.158-0.172-0.302-0.303-0.433c-0.146-0.145-0.3-0.255-0.46-0.332c-0.163-0.075-0.33-0.11-0.506-0.106
					c-0.177,0.004-0.355,0.053-0.541,0.145c-0.187,0.092-0.374,0.232-0.564,0.422l-1.001,0.993l1.913,1.897l1.021-1.014
					C279.203,34.42,279.336,34.239,279.421,34.056L279.421,34.056z M303.509,22.345l3.191,3.167l1.431-1.42l-3.191-3.166
					L303.509,22.345z M296.027,14.921l3.191,3.166l1.43-1.419l-3.189-3.167L296.027,14.921z M382.735,47.214h18.577v-3.535h-18.577
					V47.214z M382.735,38.044h18.577v-3.559h-18.577V38.044z M179.168,29.381h-4.144v9.392h-9.044v3.867h9.044v10.166h4.144V42.639
					h9.044v-3.867h-9.044V29.381z M59.818,71.71l0.229-0.603h-15.79l0.229,0.603c0.23,0.612,0.967,1.122,1.635,1.122h12.064
					C58.843,72.832,59.583,72.33,59.818,71.71L59.818,71.71z M104.301,70.533v1.725c0,0.952-0.78,1.725-1.745,1.725H1.744
					C0.781,73.982,0,73.217,0,72.258v-1.725h3.477V11.904c0-1.273,1.027-2.307,2.311-2.307h92.728c1.275,0,2.311,1.019,2.311,2.307
					V26.02l-2.317,3.519V13.047H5.795v57.486h37.084h1.159h16.225h1.158h37.085V53.532c0.432-0.292,0.805-0.666,1.083-1.115
					l1.233-2.442v20.558H104.301z M68.538,64.608c-0.349,0-0.812-0.23-0.812-0.459c0.463-1.726,1.392-2.875,2.549-3.68
					C69.581,62.423,68.886,64.033,68.538,64.608L68.538,64.608z M54.747,68.861C64.83,53.916,75.609,41.269,70.74,58.629
					c-3.245,1.495-4.637,4.37-4.637,5.52c0,1.149,1.507,1.725,2.435,1.725c1.391,0,2.666-3.68,3.477-6.439
					c1.043-0.345,2.086-0.575,3.129-0.805c-0.579,1.84-2.896,5.174-0.463,5.174c1.854,0,3.361-1.495,4.867-2.874
					c0.348,1.725,1.043,3.679,3.014,3.679c0.178,0,0.338-0.012,0.48-0.032c1.595-0.229,1.066-1.615,0.038-1.363
					c-0.02,0.004-0.037,0.009-0.057,0.015c-1.507,0.459-1.97-2.07-2.202-3.909c0-0.46-0.811-0.805-1.273-0.345
					c-1.391,1.265-3.014,3.104-4.404,3.449c0.465-1.149,3.13-5.748,0.813-5.288c-1.159,0.23-2.317,0.459-3.478,0.805
					c0.695-2.646,1.738-8.164-0.927-8.969c-1.854-0.689-5.68,0.69-18.079,19.201C53.01,68.861,54.401,69.552,54.747,68.861
					L54.747,68.861z M118.324,9.934c-0.147-0.524-0.498-0.977-0.984-1.275c-0.489-0.298-1.063-0.379-1.613-0.227
					c-0.529,0.147-0.985,0.494-1.293,0.99l-7.005,12.08c-0.61,0.981-0.276,2.245,0.756,2.875c0.331,0.203,0.701,0.305,1.075,0.303
					c0.18-0.001,0.359-0.026,0.538-0.076c0.529-0.147,0.985-0.494,1.285-0.977l7.012-12.092
					C118.397,11.049,118.479,10.481,118.324,9.934L118.324,9.934z M120.584,13.227l-10.027,14.752
					c-0.118,0.24-0.352,0.425-0.64,0.508c-0.312,0.088-0.638,0.047-0.91-0.119l-4.81-2.78c-0.241-0.118-0.43-0.35-0.512-0.635
					c-0.09-0.307-0.048-0.632,0.137-0.934l7.747-15.726c0.864-1.452,2.385-2.265,3.96-2.275c0.77-0.005,1.552,0.182,2.277,0.579
					l1.067,0.569C121.053,8.357,121.8,11.016,120.584,13.227L120.584,13.227z M86.66,63.024l6.759-7.669
					c0.302-0.304,0.456-0.664,0.454-1.031c-0.004-0.523-0.004-0.542-2.377-1.808l-1.372-0.734c-0.055-0.035-0.113-0.076-0.214-0.076
					c-0.044,0-0.098,0.009-0.159,0.03c-0.386,0.127-0.819,0.593-0.965,1.038l-0.002,0.005l-3.24,9.562
					c-0.11,0.397-0.103,0.899,0.186,1.068C85.913,63.538,86.324,63.427,86.66,63.024L86.66,63.024z M89.786,47.708
					c0.206,0.795,0.742,1.478,1.474,1.875l3.515,2.004c1.486,0.803,3.453,0.337,4.296-1.021l9.763-19.302
					c0.147-0.246,0.308-0.41,0.434-0.526c-0.396-0.274-1.35-0.804-2.75-1.581c-1.056-0.584-2.438-1.352-4.237-2.369
					c-0.036,0.148-0.089,0.332-0.183,0.521L90.14,45.459C89.711,46.125,89.584,46.926,89.786,47.708L89.786,47.708z M31.532,36.861
					h4.752v-1.609h-4.752V36.861z M40.34,36.861h31.526v-1.609H40.34V36.861z M31.532,29.962h4.752v-1.609h-4.752V29.962z
					 M40.34,29.962h31.526v-1.609H40.34V29.962z"/>
			</g>
		</g>
	</g>
</g>
<rect x="0" y="98.343" fill="none" width="104.667" height="40"/>
<g enable-background="new    ">
	<path fill="#3A3A3A" d="M4.177,101.732v3.15h0.315l2.73-3.15h1.605l-3.165,3.285c1.17,0.12,1.875,0.899,2.445,2.205
		c0.195,0.479,0.45,1.185,0.78,1.77h-1.38c-0.195-0.315-0.45-0.885-0.675-1.485c-0.495-1.17-1.17-1.71-2.4-1.71H4.177v3.195H2.871
		v-7.26H4.177z"/>
	<path fill="#3A3A3A" d="M10.027,101.822c0.51-0.09,1.455-0.165,2.31-0.165c1.215,0,3.225,0.195,3.225,1.815
		c0,0.899-0.69,1.455-1.515,1.635v0.03c1.065,0.149,1.845,0.75,1.845,1.8c0,1.904-2.4,2.145-3.825,2.145
		c-0.81,0-1.65-0.06-2.04-0.09V101.822z M11.272,108.122c0.375,0.045,0.645,0.061,1.065,0.061c0.885,0,2.205-0.21,2.205-1.261
		c0-1.05-1.05-1.274-2.31-1.274h-0.96V108.122z M11.286,104.777h0.99c0.975,0,1.98-0.285,1.98-1.14c0-0.721-0.63-1.065-1.95-1.065
		c-0.435,0-0.705,0.03-1.02,0.061V104.777z"/>
	<path fill="#3A3A3A" d="M21.576,108.992l-0.105-0.915h-0.045c-0.405,0.57-1.185,1.08-2.22,1.08c-1.47,0-2.22-1.035-2.22-2.085
		c0-1.755,1.56-2.715,4.365-2.7v-0.149c0-0.601-0.165-1.681-1.65-1.681c-0.675,0-1.38,0.21-1.89,0.54l-0.3-0.869
		c0.6-0.391,1.47-0.646,2.385-0.646c2.22,0,2.76,1.515,2.76,2.97v2.715c0,0.63,0.03,1.245,0.12,1.74H21.576z M21.382,105.287
		c-1.44-0.029-3.075,0.226-3.075,1.635c0,0.855,0.57,1.261,1.245,1.261c0.945,0,1.545-0.601,1.755-1.216
		c0.045-0.135,0.075-0.284,0.075-0.42V105.287z"/>
	<path fill="#3A3A3A" d="M30.321,101.732v7.26h-1.305v-6.225h-2.49v1.89c0,2.04-0.195,3.405-1.14,4.02
		c-0.36,0.285-0.765,0.45-1.44,0.45l-0.135-1.035c0.255-0.045,0.54-0.149,0.72-0.3c0.675-0.495,0.75-1.515,0.75-3.135v-2.925H30.321
		z"/>
	<path fill="#3A3A3A" d="M33.951,99.692c0.015,0.45-0.315,0.811-0.84,0.811c-0.465,0-0.795-0.36-0.795-0.811
		c0-0.465,0.345-0.825,0.825-0.825C33.636,98.867,33.951,99.228,33.951,99.692z M32.481,108.992v-7.26h1.32v7.26H32.481z"/>
	<path fill="#3A3A3A" d="M40.311,98.343v3.255c2.115,0.149,3.645,1.484,3.645,3.75c0,2.385-1.62,3.645-3.645,3.779v2.835h-1.2
		v-2.819c-2.1-0.136-3.645-1.455-3.645-3.721c0-2.399,1.605-3.659,3.645-3.824v-3.255H40.311z M39.111,102.497
		c-1.47,0.195-2.34,1.396-2.34,2.88c0,1.5,0.9,2.67,2.34,2.851V102.497z M40.311,108.228c1.455-0.195,2.34-1.396,2.34-2.88
		c0-1.5-0.885-2.641-2.34-2.851V108.228z"/>
	<path fill="#3A3A3A" d="M47.076,99.692c0.015,0.45-0.315,0.811-0.84,0.811c-0.465,0-0.795-0.36-0.795-0.811
		c0-0.465,0.345-0.825,0.825-0.825C46.761,98.867,47.076,99.228,47.076,99.692z M45.606,108.992v-7.26h1.32v7.26H45.606z"/>
	<path fill="#3A3A3A" d="M50.421,101.732v3.15h0.315l2.73-3.15h1.605l-3.165,3.285c1.17,0.12,1.875,0.899,2.445,2.205
		c0.195,0.479,0.45,1.185,0.78,1.77h-1.38c-0.195-0.315-0.45-0.885-0.675-1.485c-0.495-1.17-1.17-1.71-2.4-1.71h-0.255v3.195h-1.305
		v-7.26H50.421z"/>
	<path fill="#3A3A3A" d="M62.78,105.303c0,2.685-1.86,3.854-3.615,3.854c-1.965,0-3.48-1.44-3.48-3.735c0-2.43,1.59-3.854,3.6-3.854
		C61.37,101.567,62.78,103.082,62.78,105.303z M57.02,105.377c0,1.59,0.915,2.79,2.205,2.79c1.26,0,2.205-1.185,2.205-2.819
		c0-1.23-0.615-2.79-2.175-2.79C57.696,102.558,57.02,103.997,57.02,105.377z"/>
	<path fill="#3A3A3A" d="M64.416,101.822c0.51-0.09,1.455-0.165,2.31-0.165c1.215,0,3.225,0.195,3.225,1.815
		c0,0.899-0.69,1.455-1.515,1.635v0.03c1.065,0.149,1.845,0.75,1.845,1.8c0,1.904-2.4,2.145-3.825,2.145
		c-0.81,0-1.65-0.06-2.04-0.09V101.822z M65.661,108.122c0.375,0.045,0.645,0.061,1.065,0.061c0.885,0,2.205-0.21,2.205-1.261
		c0-1.05-1.05-1.274-2.31-1.274h-0.96V108.122z M65.676,104.777h0.99c0.975,0,1.98-0.285,1.98-1.14c0-0.721-0.63-1.065-1.95-1.065
		c-0.435,0-0.705,0.03-1.02,0.061V104.777z"/>
	<path fill="#3A3A3A" d="M75.966,108.992l-0.105-0.915h-0.045c-0.405,0.57-1.185,1.08-2.22,1.08c-1.47,0-2.22-1.035-2.22-2.085
		c0-1.755,1.56-2.715,4.365-2.7v-0.149c0-0.601-0.165-1.681-1.65-1.681c-0.675,0-1.38,0.21-1.89,0.54l-0.3-0.869
		c0.6-0.391,1.47-0.646,2.385-0.646c2.22,0,2.76,1.515,2.76,2.97v2.715c0,0.63,0.03,1.245,0.12,1.74H75.966z M75.771,105.287
		c-1.44-0.029-3.075,0.226-3.075,1.635c0,0.855,0.57,1.261,1.245,1.261c0.945,0,1.545-0.601,1.755-1.216
		c0.045-0.135,0.075-0.284,0.075-0.42V105.287z"/>
	<path fill="#3A3A3A" d="M80.45,101.732v2.925h3.45v-2.925h1.305v7.26H83.9v-3.285h-3.45v3.285h-1.305v-7.26H80.45z"/>
	<path fill="#3A3A3A" d="M88.58,101.732v3.06c0,1.155-0.015,1.875-0.075,2.91l0.045,0.015c0.435-0.885,0.69-1.395,1.17-2.234
		l2.265-3.75h1.545v7.26h-1.26v-3.075c0-1.185,0.03-1.8,0.09-2.97h-0.045c-0.465,0.93-0.78,1.515-1.2,2.25
		c-0.69,1.125-1.485,2.52-2.265,3.795h-1.515v-7.26H88.58z"/>
	<path fill="#3A3A3A" d="M96.89,101.732v3.06c0,1.155-0.015,1.875-0.075,2.91l0.045,0.015c0.435-0.885,0.69-1.395,1.17-2.234
		l2.265-3.75h1.545v7.26h-1.26v-3.075c0-1.185,0.03-1.8,0.09-2.97h-0.045c-0.465,0.93-0.78,1.515-1.2,2.25
		c-0.69,1.125-1.485,2.52-2.265,3.795h-1.515v-7.26H96.89z M97.745,98.777c0.045,0.646,0.36,1.141,0.96,1.141
		c0.645,0,0.945-0.48,1.02-1.141h0.945c-0.06,1.23-0.84,1.86-1.995,1.86c-1.32,0-1.83-0.825-1.89-1.86H97.745z"/>
</g>
<g enable-background="new    ">
	<path fill="#333333" d="M38.038,119.732v7.26h-1.32v-6.21h-3.375v6.21h-1.305v-7.26H38.038z"/>
	<path fill="#333333" d="M41.653,117.692c0.015,0.45-0.315,0.811-0.84,0.811c-0.465,0-0.795-0.36-0.795-0.811
		c0-0.465,0.345-0.825,0.825-0.825C41.338,116.867,41.653,117.228,41.653,117.692z M40.182,126.992v-7.26h1.32v7.26H40.182z"/>
	<path fill="#333333" d="M49.317,119.732v6.27l0.75,0.016l-0.075,3.284h-1.035l-0.06-2.31h-5.025l-0.06,2.31h-1.035l-0.06-3.284
		l0.615-0.016c0.315-0.465,0.555-0.96,0.72-1.484c0.285-0.9,0.42-1.875,0.42-2.896v-1.89H49.317z M45.642,121.938
		c0,0.96-0.135,1.89-0.375,2.7c-0.15,0.494-0.36,0.944-0.585,1.35h3.345v-5.25h-2.385V121.938z"/>
	<path fill="#333333" d="M57.613,119.732v7.26h-1.32v-6.21h-3.375v6.21h-1.305v-7.26H57.613z"/>
	<path fill="#333333" d="M60.972,119.732v3.06c0,1.155-0.015,1.875-0.075,2.91l0.045,0.015c0.435-0.885,0.69-1.395,1.17-2.234
		l2.265-3.75h1.545v7.26h-1.26v-3.075c0-1.185,0.03-1.8,0.09-2.97h-0.045c-0.465,0.93-0.78,1.515-1.2,2.25
		c-0.69,1.125-1.485,2.52-2.265,3.795h-1.515v-7.26H60.972z"/>
	<path fill="#333333" d="M73.241,126.723c-0.345,0.18-1.11,0.42-2.084,0.42c-2.19,0-3.615-1.485-3.615-3.705
		c0-2.235,1.53-3.855,3.9-3.855c0.78,0,1.47,0.195,1.83,0.375l-0.3,1.021c-0.315-0.18-0.81-0.345-1.53-0.345
		c-1.665,0-2.565,1.229-2.565,2.744c0,1.681,1.08,2.715,2.52,2.715c0.75,0,1.245-0.194,1.62-0.359L73.241,126.723z"/>
</g>
</svg>
